<?xml version="1.0" encoding="utf-8"?>
<svg version="1.1" xmlns="http://www.w3.org/2000/svg" width="200" height="200">
  <path d="M0 0 C66 0 132 0 200 0 C200 66 200 132 200 200 C134 200 68 200 0 200 C0 134 0 68 0 0 Z " fill="#010101" transform="translate(0,0)"/>
  <path d="M0 0 C66 0 132 0 200 0 C200 66 200 132 200 200 C134 200 68 200 0 200 C0 134 0 68 0 0 Z M43 27 C42.15050781 27.69867187 41.30101562 28.39734375 40.42578125 29.1171875 C28.24128 39.60369547 19.41755711 52.13638624 13.6875 67.125 C13.44491455 67.75752686 13.2023291 68.39005371 12.95239258 69.04174805 C9.28804357 79.14105142 8.68404333 88.80402655 8.75 99.5 C8.74226562 100.75425781 8.73453125 102.00851563 8.7265625 103.30078125 C8.74777382 113.4291874 10.04228331 122.3697797 13.6875 131.8125 C13.95022705 132.49481689 14.2129541 133.17713379 14.48364258 133.88012695 C24.43051332 159.03882476 42.77723214 176.88906409 67.6015625 187.6796875 C90.44543127 196.55466181 116.42138166 195.23491908 139 186 C162.26051033 175.5756535 179.27334732 157.47414505 189 134 C197.63485818 110.18111525 197.69619841 84.19447372 187 61 C182.7408187 51.99183154 177.67508609 44.39106067 171 37 C170.23945313 36.14535156 169.47890625 35.29070313 168.6953125 34.41015625 C152.97529029 17.68508344 129.93774398 7.48534949 107.09375 6.76171875 C82.81483203 6.35049171 62.07820071 11.19664004 43 27 Z " fill="#FCFCFC" transform="translate(0,0)"/>
  <path d="M0 0 C8.23397646 6.97004267 15.31725622 16.33108943 16.7980957 27.33862305 C16.93303968 29.70327215 16.96380208 32.03801295 16.93359375 34.40625 C16.92602051 35.24075684 16.91844727 36.07526367 16.91064453 36.93505859 C16.60554246 48.40199704 12.38715522 58.05218696 4.35546875 66.2890625 C-6.0644167 75.89378684 -16.83942682 79.79902623 -31.08203125 79.44140625 C-43.1640951 78.21389063 -54.1583785 71.62481972 -61.8203125 62.375 C-69.18146196 52.40072787 -71.7673263 40.34031023 -70.50390625 28.09375 C-68.09641119 15.75533784 -61.97370832 5.26885911 -51.50390625 -1.90625 C-34.79184236 -11.09299857 -15.73063661 -11.97589807 0 0 Z " fill="#FDDD02" transform="translate(128.50390625,64.90625)"/>
  <path d="M0 0 C0.99 0.495 0.99 0.495 2 1 C2 2.65 2 4.3 2 6 C2.66 6 3.32 6 4 6 C4 7.65 4 9.3 4 11 C4.99 11.33 5.98 11.66 7 12 C7.68132451 13.66072849 8.34742127 15.327767 9 17 C9.99 17.66 10.98 18.32 12 19 C12 20.32 12 21.64 12 23 C12.66 23 13.32 23 14 23 C14.33 24.65 14.66 26.3 15 28 C7.14978247 22.20579182 2.16174795 14.55233923 0 5 C-0.1875 1.9375 -0.1875 1.9375 0 0 Z " fill="#EED628" transform="translate(59,106)"/>
  <path d="M0 0 C4.90598352 5.79798052 5.38657618 11.89667844 5.375 19.1875 C5.37628906 20.02450439 5.37757813 20.86150879 5.37890625 21.72387695 C5.26558986 28.38572153 4.0173419 34.00572702 1 40 C0.12159004 36.90279155 0.00564594 35.09354597 1 32 C1.66 32 2.32 32 3 32 C2.69195 27.79132858 2.37777479 23.58313588 2.0625 19.375 C1.97548828 18.18519531 1.88847656 16.99539062 1.79882812 15.76953125 C1.71181641 14.61582031 1.62480469 13.46210937 1.53515625 12.2734375 C1.456604 11.21560059 1.37805176 10.15776367 1.29711914 9.06787109 C1.00112384 6.0116041 0.54058596 3.0217369 0 0 Z " fill="#EAD232" transform="translate(140,80)"/>
  <path d="M0 0 C1 3 1 3 0.1875 5.625 C-1 8 -1 8 -3 9 C-5.42728585 13.57450026 -6.15402199 16.48986782 -5.90625 21.734375 C-6.09510332 26.29833013 -7.65944595 30.65915832 -9 35 C-9.33 35 -9.66 35 -10 35 C-10.78798918 21.62607248 -8.28200288 10.68378372 0 0 Z " fill="#DDC933" transform="translate(68,71)"/>
  <path d="M0 0 C10.19713647 1.01971365 17.02813233 6.86800109 24 14 C25.55647437 15.95956133 26.7680743 17.81613172 28 20 C27.67 20.66 27.34 21.32 27 22 C26.34 21.01 25.68 20.02 25 19 C22.43717258 18.27034634 22.43717258 18.27034634 20 18 C19.67 15.69 19.34 13.38 19 11 C16.525 10.505 16.525 10.505 14 10 C14 9.01 14 8.02 14 7 C10.98029212 5.43370292 7.91349586 4.12374836 4.75 2.875 C3.85796875 2.52179687 2.9659375 2.16859375 2.046875 1.8046875 C1.03367187 1.40636719 1.03367187 1.40636719 0 1 C0 0.67 0 0.34 0 0 Z " fill="#E4CD33" transform="translate(112,58)"/>
  <path d="M0 0 C1.35548844 0.43338746 2.70931276 0.87197995 4.0625 1.3125 C4.81660156 1.55613281 5.57070312 1.79976562 6.34765625 2.05078125 C9 3 9 3 12.28125 4.53125 C16.40402167 6.15957158 20.06230256 6.75118113 24.4375 7.1875 C25.16904297 7.26935547 25.90058594 7.35121094 26.65429688 7.43554688 C28.43514466 7.63341885 30.21744927 7.81810707 32 8 C32 8.33 32 8.66 32 9 C19.56441409 9.65354904 10.53033173 7.55220641 0 1 C0 0.67 0 0.34 0 0 Z " fill="#CDB831" transform="translate(76,135)"/>
  <path d="M0 0 C0.66 0.33 1.32 0.66 2 1 C0.92492371 2.29854721 -0.16043736 3.58858361 -1.25 4.875 C-1.85328125 5.59429687 -2.4565625 6.31359375 -3.078125 7.0546875 C-4.97087634 8.97052118 -6.53657727 9.96449045 -9 11 C-8.67 9.68 -8.34 8.36 -8 7 C-7.34 7.33 -6.68 7.66 -6 8 C-6 6.35 -6 4.7 -6 3 C-5.01 3.33 -4.02 3.66 -3 4 C-2.67 3.01 -2.34 2.02 -2 1 C-1.34 0.67 -0.68 0.34 0 0 Z " fill="#EAD32E" transform="translate(136,124)"/>
  <path d="M0 0 C1.84948249 2.71982718 1.99790756 4.02824799 1.75 7.375 C1.0601323 10.70936057 0.16873599 13.80545497 -1 17 C-1.33 17 -1.66 17 -2 17 C-2.05418326 14.91695462 -2.09287551 12.83350232 -2.125 10.75 C-2.14820313 9.58984375 -2.17140625 8.4296875 -2.1953125 7.234375 C-2.0103949 4.17213954 -1.60823023 2.55797249 0 0 Z " fill="#EED623" transform="translate(60,89)"/>
  <path d="M0 0 C-0.33 0.99 -0.66 1.98 -1 3 C-1.680625 3.268125 -2.36125 3.53625 -3.0625 3.8125 C-7.23779324 5.5003845 -10.48350375 8.22519651 -14 11 C-14.66 10.67 -15.32 10.34 -16 10 C-5.20547945 0 -5.20547945 0 0 0 Z " fill="#DCC935" transform="translate(85,60)"/>
  <path d="M0 0 C1.98 0.99 1.98 0.99 4 2 C4 2.99 4 3.98 4 5 C4.66 5 5.32 5 6 5 C6 5.66 6 6.32 6 7 C4.02 6.34 2.04 5.68 0 5 C0 3.35 0 1.7 0 0 Z " fill="#F7DC1B" transform="translate(74,129)"/>
  <path d="M0 0 C4.43090471 1.20842856 6.98112756 2.51668565 10 6 C9.67 6.99 9.34 7.98 9 9 C7.49704815 7.69088122 5.99770689 6.37761608 4.5 5.0625 C3.6646875 4.33160156 2.829375 3.60070312 1.96875 2.84765625 C1.3190625 2.23792969 0.669375 1.62820312 0 1 C0 0.67 0 0.34 0 0 Z " fill="#221500" transform="translate(126,63)"/>
  <path d="M0 0 C1.32 0.33 2.64 0.66 4 1 C0.98112756 4.48331435 -1.56909529 5.79157144 -6 7 C-6.33 6.34 -6.66 5.68 -7 5 C-4.69 4.34 -2.38 3.68 0 3 C0 2.01 0 1.02 0 0 Z " fill="#E1CA32" transform="translate(123,134)"/>
  <path d="M0 0 C5.66153846 2.33846154 5.66153846 2.33846154 7.375 5.6875 C7.684375 6.8321875 7.684375 6.8321875 8 8 C7.608125 7.525625 7.21625 7.05125 6.8125 6.5625 C4.59191626 4.64820367 2.86624291 4.38733012 0 4 C0 2.68 0 1.36 0 0 Z " fill="#F4D424" transform="translate(132,72)"/>
  <path d="M0 0 C2.4375 0.6875 2.4375 0.6875 5 2 C5.8125 4.625 5.8125 4.625 6 7 C3.95880212 5.38405168 1.95927063 3.7143618 0 2 C0 1.34 0 0.68 0 0 Z " fill="#D8C62B" transform="translate(68,127)"/>
  <ellipse style="stroke: rgb(0, 0, 0); fill: rgb(253, 221, 2);" cx="101.286" cy="99.819" rx="44.83" ry="44.83"/>
</svg>