<?xml version="1.0" encoding="UTF-8" standalone="no"?>
<svg
   xmlns:dc="http://purl.org/dc/elements/1.1/"
   xmlns:cc="http://creativecommons.org/ns#"
   xmlns:rdf="http://www.w3.org/1999/02/22-rdf-syntax-ns#"
   xmlns:svg="http://www.w3.org/2000/svg"
   xmlns="http://www.w3.org/2000/svg"
   xmlns:sodipodi="http://sodipodi.sourceforge.net/DTD/sodipodi-0.dtd"
   xmlns:inkscape="http://www.inkscape.org/namespaces/inkscape"
   version="1.1"
   id="svg2"
   xml:space="preserve"
   width="333.33334"
   height="320"
   viewBox="0 0 333.33334 320"
   sodipodi:docname="RG_Ribbon_web.ai"><metadata
     id="metadata8"><rdf:RDF><cc:Work
         rdf:about=""><dc:format>image/svg+xml</dc:format><dc:type
           rdf:resource="http://purl.org/dc/dcmitype/StillImage" /></cc:Work></rdf:RDF></metadata><defs
     id="defs6"><linearGradient
       x1="0"
       y1="0"
       x2="1"
       y2="0"
       gradientUnits="userSpaceOnUse"
       gradientTransform="matrix(-49.378548,0,0,-49.378548,248.74994,80.698525)"
       spreadMethod="pad"
       id="linearGradient30"><stop
         style="stop-opacity:1;stop-color:#165374"
         offset="0"
         id="stop24" /><stop
         style="stop-opacity:1;stop-color:#02415b"
         offset="0.70110003"
         id="stop26" /><stop
         style="stop-opacity:1;stop-color:#02415b"
         offset="1"
         id="stop28" /></linearGradient><linearGradient
       x1="0"
       y1="0"
       x2="1"
       y2="0"
       gradientUnits="userSpaceOnUse"
       gradientTransform="matrix(-17.432016,0,0,-17.432016,216.97,63.655624)"
       spreadMethod="pad"
       id="linearGradient52"><stop
         style="stop-opacity:1;stop-color:#0d3043"
         offset="0"
         id="stop46" /><stop
         style="stop-opacity:1;stop-color:#061218"
         offset="0.93933758"
         id="stop48" /><stop
         style="stop-opacity:1;stop-color:#061218"
         offset="1"
         id="stop50" /></linearGradient><linearGradient
       x1="0"
       y1="0"
       x2="1"
       y2="0"
       gradientUnits="userSpaceOnUse"
       gradientTransform="matrix(49.376606,0,0,-49.376606,1.236436,80.698525)"
       spreadMethod="pad"
       id="linearGradient74"><stop
         style="stop-opacity:1;stop-color:#165374"
         offset="0"
         id="stop68" /><stop
         style="stop-opacity:1;stop-color:#02415b"
         offset="0.70110003"
         id="stop70" /><stop
         style="stop-opacity:1;stop-color:#02415b"
         offset="1"
         id="stop72" /></linearGradient><linearGradient
       x1="0"
       y1="0"
       x2="1"
       y2="0"
       gradientUnits="userSpaceOnUse"
       gradientTransform="matrix(17.876894,0,0,-17.876894,32.540279,63.655624)"
       spreadMethod="pad"
       id="linearGradient96"><stop
         style="stop-opacity:1;stop-color:#0d3043"
         offset="0"
         id="stop90" /><stop
         style="stop-opacity:1;stop-color:#061218"
         offset="0.93933758"
         id="stop92" /><stop
         style="stop-opacity:1;stop-color:#061218"
         offset="1"
         id="stop94" /></linearGradient><linearGradient
       x1="0"
       y1="0"
       x2="1"
       y2="0"
       gradientUnits="userSpaceOnUse"
       gradientTransform="matrix(204.68024,0,0,-204.68024,22.676701,35.95311)"
       spreadMethod="pad"
       id="linearGradient120"><stop
         style="stop-opacity:1;stop-color:#02415b"
         offset="0"
         id="stop112" /><stop
         style="stop-opacity:1;stop-color:#02415b"
         offset="0.0981595"
         id="stop114" /><stop
         style="stop-opacity:1;stop-color:#165374"
         offset="0.901841"
         id="stop116" /><stop
         style="stop-opacity:1;stop-color:#165374"
         offset="1"
         id="stop118" /></linearGradient><clipPath
       clipPathUnits="userSpaceOnUse"
       id="clipPath130"><path
         d="M 0,240 H 250 V 0 H 0 Z"
         id="path128" /></clipPath></defs><sodipodi:namedview
     pagecolor="#ffffff"
     bordercolor="#666666"
     borderopacity="1"
     objecttolerance="10"
     gridtolerance="10"
     guidetolerance="10"
     inkscape:pageopacity="0"
     inkscape:pageshadow="2"
     inkscape:window-width="640"
     inkscape:window-height="480"
     id="namedview4" /><g
     id="g10"
     inkscape:groupmode="layer"
     inkscape:label="RG_Ribbon_web"
     transform="matrix(1.3333333,0,0,-1.3333333,0,320)"><g
       id="g12"><g
         id="g14"><g
           id="g20"><g
             id="g22"><path
               d="m 227.661,83.228 c -5.133,-5.71 -11.284,-4.438 -11.284,-4.438 v 0 c -6.877,1.207 -10.525,0.127 -10.525,0.127 v 0 c -9.298,-2.89 -5.859,-9.328 -5.859,-9.328 v 0 c 0.81,-2.29 9.883,-12.684 9.883,-12.684 v 0 l 13.253,0.295 c 27.854,6.627 25.576,28.194 25.576,28.194 v 0 C 246.213,81.3 235.396,76.846 235.396,76.846 v 0 c 3.954,11.839 -0.542,27.646 -0.542,27.646 v 0 c -0.597,-13.525 -7.193,-21.264 -7.193,-21.264"
               style="fill:url(#linearGradient30);stroke:none"
               id="path32" /></g></g></g></g><g
       id="g34"><g
         id="g36"><g
           id="g42"><g
             id="g44"><path
               d="m 212.338,70.387 c 0,0 -9.927,-5.508 -12.447,-0.475 v 0 c 0.885,-2.317 3.399,-8.429 7.104,-13.623 v 0 c 0,0 10.087,8.567 9.974,11.255 v 0 c 0,0 0.011,2.078 -0.886,3.173 v 0 c 0,0 -0.331,0.305 -1.181,0.305 v 0 c -0.586,0 -1.42,-0.145 -2.564,-0.635 m -12.447,-0.475 c -0.233,0.609 -0.353,0.956 -0.353,0.956 v 0 c 0.092,-0.354 0.211,-0.672 0.353,-0.956"
               style="fill:url(#linearGradient52);stroke:none"
               id="path54" /></g></g></g></g><g
       id="g56"><g
         id="g58"><g
           id="g64"><g
             id="g66"><path
               d="m 14.588,76.846 c 0,0 -10.815,4.454 -13.306,8.548 v 0 c 0,0 -2.279,-21.567 25.576,-28.194 v 0 l 13.251,-0.295 c 0,0 9.074,10.394 9.881,12.684 v 0 c 0,0 3.442,6.438 -5.858,9.328 v 0 c 0,0 -3.646,1.08 -10.524,-0.127 v 0 c 0,0 -6.151,-1.272 -11.284,4.438 v 0 c 0,0 -6.597,7.739 -7.193,21.264 v 0 c 0,0 -4.497,-15.807 -0.543,-27.646"
               style="fill:url(#linearGradient74);stroke:none"
               id="path76" /></g></g></g></g><g
       id="g78"><g
         id="g80"><g
           id="g86"><g
             id="g88"><path
               d="M 33.896,70.717 C 33,69.622 32.541,68.089 32.541,68.089 v 0 c -0.113,-2.688 10.442,-11.8 10.442,-11.8 v 0 c 3.691,5.174 6.186,11.194 7.074,13.503 v 0 c -2.53,-4.998 -12.416,0.595 -12.416,0.595 v 0 c -1.144,0.49 -1.978,0.635 -2.564,0.635 v 0 c -0.85,0 -1.181,-0.305 -1.181,-0.305 m 16.161,-0.925 c 0.145,0.287 0.267,0.61 0.36,0.97 v 0 c 0,0 -0.122,-0.352 -0.36,-0.97"
               style="fill:url(#linearGradient96);stroke:none"
               id="path98" /></g></g></g></g><g
       id="g100"><g
         id="g102"><g
           id="g108"><g
             id="g110"><path
               d="M 215.663,66.726 C 195.328,38.454 158.763,27.562 125.018,25.82 v 0 C 91.276,27.562 56.031,39.456 34.371,66.726 v 0 c -1.19,1.497 -1.821,1.745 -0.701,3.744 v 0 C 30.528,65.156 27.541,60.133 24.258,54.906 v 0 c -2.405,-3.859 -1.704,-6.47 -0.29,-8.413 v 0 C 47.057,14.737 87.31,2.947 124.827,1.215 v 0 V 1.2 c 0.064,0.002 0.317,0.002 0.379,0 v 0 0.015 c 37.525,1.732 77.769,13.506 100.861,45.278 v 0 c 1.413,1.945 2.113,4.554 -0.291,8.413 v 0 c -3.286,5.226 -6.412,10.608 -9.672,15.8 v 0 c 0.981,-1.572 0.62,-2.507 -0.441,-3.98"
               style="fill:url(#linearGradient120);stroke:none"
               id="path122" /></g></g></g></g><g
       id="g124"><g
         id="g126"
         clip-path="url(#clipPath130)"><g
           id="g132"
           transform="translate(54.5337,30.9531)"><path
             d="M 0,0 C 0.433,-0.309 0.731,-0.45 1.174,-0.695 3.31,-1.876 5.174,-1.818 6.35,0.31 7.261,1.958 7.158,3.682 4.195,5.319 3.83,5.521 3.579,5.659 3.213,5.815 Z m -1.841,-3.334 c -0.588,-1.063 -0.273,-1.585 0.804,-2.181 l 0.443,-0.244 -0.186,-0.337 -5.446,3.01 0.186,0.337 0.328,-0.181 c 1.135,-0.628 1.695,-0.567 2.352,0.621 l 4.124,7.464 c 0.608,1.1 0.457,1.6 -0.66,2.217 l -0.423,0.233 0.187,0.337 C 0.329,7.687 1.542,7.109 2.351,6.709 3.159,6.309 3.554,6.113 4.805,5.422 8.364,3.454 9.217,1.225 8.217,-0.584 7.483,-1.914 5.884,-2.488 4.071,-2.042 4.499,-2.95 4.802,-3.766 5.246,-5.099 L 5.992,-7.34 c 0.557,-1.673 1.369,-2.977 2.801,-3.886 l -0.176,-0.319 c -3.446,1.72 -3.939,2.872 -4.78,5.397 l -0.623,1.872 c -0.416,1.248 -0.805,2.134 -1.11,2.673 -0.491,0.249 -0.809,0.401 -1.328,0.688 -0.423,0.234 -0.664,0.39 -0.962,0.578 z"
             style="fill:#ffffff;fill-opacity:1;fill-rule:nonzero;stroke:none"
             id="path134" /></g><g
           id="g136"
           transform="translate(75.0059,28.4971)"><path
             d="m 0,0 c -3.62,1.367 -6.231,-1.197 -7.088,-3.472 -1.336,-3.544 0.334,-7.031 3.646,-8.282 3.352,-1.266 5.985,0.858 6.999,3.549 C 4.885,-4.681 3.394,-1.281 0,0 m -4.053,-12.064 c -4.031,1.522 -6.526,5.191 -5.19,8.735 1.421,3.771 5.575,5.255 9.956,3.6 3.888,-1.467 6.299,-5.17 5.013,-8.582 -1.442,-3.828 -5.788,-5.26 -9.779,-3.753"
             style="fill:#ffffff;fill-opacity:1;fill-rule:nonzero;stroke:none"
             id="path138" /></g><g
           id="g140"
           transform="translate(88.4248,13.3682)"><path
             d="m 0,0 c -0.264,-1.062 0.028,-1.53 1.33,-1.854 l 0.79,-0.197 -0.093,-0.373 -6.724,1.673 0.093,0.373 0.79,-0.196 c 1.302,-0.324 1.778,-0.046 2.042,1.015 l 2.412,9.708 -3.714,0.924 c -0.854,0.213 -1.35,-0.143 -2.1,-1.793 l -0.385,0.095 1.133,3.1 0.405,-0.102 c -0.007,-0.123 0.059,-0.223 0.177,-0.294 0.118,-0.071 0.262,-0.128 0.412,-0.165 L 6.836,9.359 C 7.135,9.285 7.47,9.265 7.571,9.49 L 7.977,9.389 7.527,6.12 7.143,6.216 C 7.252,8.025 6.98,8.572 6.126,8.785 L 2.412,9.709 Z"
             style="fill:#ffffff;fill-opacity:1;fill-rule:nonzero;stroke:none"
             id="path142" /></g><g
           id="g144"
           transform="translate(100.333,15.1064)"><path
             d="m 0,0 -0.56,-3.81 c -0.191,-1.302 0.024,-1.805 1.482,-2.019 l 0.065,-0.01 -0.056,-0.381 -5.461,0.801 0.055,0.381 0.131,-0.019 c 1.284,-0.188 1.766,0.069 1.934,1.211 l 1.296,8.823 C -0.961,6.02 -1.287,6.374 -2.472,6.63 L -2.416,7.011 2.763,6.252 2.707,5.871 C 1.162,6.098 0.845,5.755 0.618,4.211 l -0.512,-3.489 8.529,-1.25 0.58,3.95 C 9.372,4.484 9.061,4.939 7.711,5.138 L 7.298,5.198 7.354,5.579 12.946,4.759 12.89,4.378 C 11.579,4.529 11.178,4.22 10.995,2.977 L 9.773,-5.344 c -0.209,-1.424 0.179,-1.808 1.484,-2 l 0.218,-0.032 -0.056,-0.381 -6.158,0.903 0.056,0.381 0.675,-0.099 c 1.414,-0.207 1.786,0.21 1.94,1.252 l 0.597,4.07 z"
             style="fill:#ffffff;fill-opacity:1;fill-rule:nonzero;stroke:none"
             id="path146" /></g><g
           id="g148"
           transform="translate(123.6743,11.2881)"><path
             d="m 0,0 -0.417,0.019 c -0.115,1.443 -0.525,1.624 -1.426,1.662 l -3.713,0.16 -0.186,-4.31 c -0.04,-0.93 0.326,-1.129 1.139,-1.164 l 3.384,-0.145 c 1.538,-0.067 2.023,0.46 2.647,2.176 l 0.395,-0.017 -0.481,-2.999 -11.667,0.502 0.016,0.385 0.616,-0.027 c 1.757,-0.076 2.084,0.356 2.136,1.57 l 0.368,8.539 c 0.048,1.132 -0.217,1.63 -1.689,1.694 L -9.361,8.065 -9.345,8.45 1.202,7.996 1.257,5.176 0.861,5.193 C 0.65,6.925 0.116,7.312 -0.675,7.347 l -4.636,0.2 -0.214,-4.978 3.933,-0.17 c 0.791,-0.033 1.179,0.294 1.34,1.463 L 0.165,3.845 Z"
             style="fill:#ffffff;fill-opacity:1;fill-rule:nonzero;stroke:none"
             id="path150" /></g><g
           id="g152"
           transform="translate(131.3232,12.6113)"><path
             d="M 0,0 C 0.531,-0.014 0.857,0.036 1.361,0.081 3.792,0.298 5.306,1.389 5.09,3.809 4.922,5.685 3.873,7.056 0.501,6.755 0.085,6.718 -0.2,6.692 -0.591,6.616 Z m 0.339,-3.792 c 0.107,-1.211 0.66,-1.467 1.887,-1.357 l 0.503,0.045 0.034,-0.383 -6.197,-0.553 -0.034,0.383 0.372,0.033 c 1.292,0.115 1.723,0.479 1.603,1.831 L -2.251,4.699 C -2.363,5.95 -2.768,6.28 -4.037,6.167 L -4.52,6.124 -4.554,6.507 c 0.526,0.047 1.855,0.247 2.748,0.367 0.895,0.12 1.33,0.18 2.754,0.307 C 4.999,7.542 6.953,6.171 7.137,4.113 7.271,2.601 6.269,1.23 4.517,0.586 5.379,0.073 6.086,-0.433 7.2,-1.289 l 1.872,-1.44 c 1.398,-1.075 2.8,-1.702 4.495,-1.652 L 13.6,-4.744 C 9.782,-5.247 8.729,-4.569 6.619,-2.947 L 5.056,-1.745 C 4.013,-0.943 3.194,-0.427 2.64,-0.15 2.095,-0.22 1.746,-0.271 1.154,-0.324 0.673,-0.367 0.387,-0.372 0.034,-0.383 Z"
             style="fill:#ffffff;fill-opacity:1;fill-rule:nonzero;stroke:none"
             id="path154" /></g><g
           id="g156"
           transform="translate(156.5,11.1797)"><path
             d="m 0,0 c -1.971,-1.386 -4.682,-2.097 -5.592,-2.252 -4.745,-0.812 -7.533,2.186 -8.032,5.102 -0.513,2.996 1.12,7.14 6.407,8.045 2.319,0.396 3.973,-0.019 4.428,0.058 0.195,0.034 0.361,0.104 0.475,0.226 l 0.302,0.051 0.554,-3.235 -0.433,-0.074 c -1.012,2.396 -2.987,2.86 -5.003,2.516 -3.813,-0.654 -5.264,-3.904 -4.713,-7.119 0.7,-4.094 4.131,-5.379 6.623,-4.952 0.997,0.17 2.068,0.56 3.185,1.326 l -0.43,2.517 C -2.424,3.348 -2.923,3.653 -4.223,3.431 L -5.024,3.293 -5.086,3.652 0.765,4.654 0.826,4.294 C -0.247,4.049 -0.622,3.636 -0.476,2.776 Z"
             style="fill:#ffffff;fill-opacity:1;fill-rule:nonzero;stroke:none"
             id="path158" /></g><g
           id="g160"
           transform="translate(169.3828,13.4648)"><path
             d="m 0,0 -9.502,-2.518 -0.099,0.372 0.703,0.186 c 0.977,0.26 1.26,0.648 0.996,1.648 L -10.2,8.36 c -0.276,1.037 -0.73,1.378 -2.069,1.024 l -0.297,-0.079 -0.099,0.372 6.27,1.661 0.099,-0.372 -0.786,-0.209 C -8.464,10.392 -8.789,10.158 -8.468,8.944 l 2.393,-9.024 c 0.139,-0.528 0.426,-0.663 1.042,-0.499 l 3.124,0.827 c 1.254,0.332 1.517,0.884 2.405,2.942 l 0.383,0.101 z"
             style="fill:#ffffff;fill-opacity:1;fill-rule:nonzero;stroke:none"
             id="path162" /></g><g
           id="g164"
           transform="translate(179.9746,21.958)"><path
             d="m 0,0 -0.392,-0.145 c -0.662,1.29 -1.11,1.297 -1.956,0.986 l -3.486,-1.284 1.491,-4.05 c 0.322,-0.874 0.737,-0.916 1.5,-0.635 l 3.177,1.17 c 1.444,0.532 1.688,1.205 1.602,3.029 l 0.371,0.138 0.714,-2.955 -10.956,-4.035 -0.132,0.361 0.578,0.213 c 1.65,0.608 1.785,1.133 1.364,2.273 L -9.08,3.09 c -0.393,1.064 -0.829,1.422 -2.211,0.913 l -0.454,-0.167 -0.133,0.361 9.902,3.648 1.139,-2.582 -0.371,-0.137 C -2.072,6.643 -2.714,6.795 -3.456,6.521 L -7.81,4.918 -6.086,0.241 -2.394,1.602 c 0.743,0.273 0.975,0.725 0.671,1.866 l 0.393,0.144 z"
             style="fill:#ffffff;fill-opacity:1;fill-rule:nonzero;stroke:none"
             id="path166" /></g><g
           id="g168"
           transform="translate(198.6719,25.9463)"><path
             d="m 0,0 -15.232,4.27 4.118,-7.653 c 0.69,-1.284 1.144,-1.385 2.79,-0.499 l 0.182,-0.339 -4.492,-2.418 -0.182,0.339 0.077,0.042 c 1.201,0.647 1.386,1.23 0.945,2.05 l -4.723,8.775 c -0.598,0.046 -1.178,-0.082 -1.866,-0.428 l -0.182,0.339 3.04,1.635 13.833,-3.849 -3.821,7.099 c -0.585,1.088 -1.039,1.097 -2.607,0.299 l -0.183,0.339 4.532,2.438 0.182,-0.338 C -5.041,11.319 -5.227,10.92 -4.852,10.225 L 0.504,0.271 Z"
             style="fill:#ffffff;fill-opacity:1;fill-rule:nonzero;stroke:none"
             id="path170" /></g><g
           id="g172"
           transform="translate(204.3718,231.155)"><path
             d="M 0,0 -1.982,7.645 H -157.641 L -159.625,0 c -9.014,-34.762 -10.752,-66.813 -5.165,-95.26 4.545,-23.137 13.891,-43.896 27.78,-61.703 23.691,-30.38 52.359,-41.533 53.567,-41.992 l 3.628,-1.382 3.633,1.38 c 1.209,0.461 29.9,11.643 53.569,41.994 13.889,17.808 23.235,38.568 27.778,61.703 C 10.754,-66.811 9.016,-34.761 0,0"
             style="fill:#b3b3b3;fill-opacity:1;fill-rule:nonzero;stroke:none"
             id="path174" /></g><g
           id="g176"
           transform="translate(194.7492,229.2237)"><path
             d="m 0,0 c 14.361,-59.924 6.65,-111.294 -22.362,-148.687 -18.507,-23.853 -40.754,-35.536 -47.829,-38.833 -7.071,3.297 -29.319,14.98 -47.827,38.833 -29.01,37.393 -36.723,88.763 -22.361,148.687 z"
             style="fill:#02415b;fill-opacity:1;fill-rule:nonzero;stroke:none"
             id="path178" /></g><g
           id="g180"
           transform="translate(118.0906,200.9403)"><path
             d="m 0,0 c -0.117,7.164 -9.375,4.389 -9.375,4.389 0,0 0.651,1.738 0.914,2.156 1.454,2.288 2.423,2.246 3.991,2.227 -3.678,1.609 -6.167,-0.125 -8.237,-3.157 -1.687,-2.465 -0.503,-3.858 -0.415,-5.874 0.074,-1.717 0.102,-2.104 -1.4,-3.591 -1.099,-1.085 -2.479,-2.027 -3.576,-2.968 -1.049,-0.896 -1.22,-2.513 -1.265,-3.687 1.384,-1.41 1.813,-2.851 1.819,-2.862 -0.019,0.011 -4.525,-9.582 -9.179,-6.932 0.68,-1.56 1.83,-2.469 3.933,-4.504 -2.897,0.203 -10.059,1.536 -11.659,4.954 -0.345,-1.456 -0.576,-2.357 -1.428,-4.119 -0.163,0.287 -0.302,0.573 -0.444,0.861 -1.027,-2.185 -4.293,-7.092 -9.48,-8.43 1.805,-0.626 3.667,-0.969 5.286,-1.081 -0.864,-1.213 -5.274,-4.607 -7.035,-4.194 -3.723,0.871 -0.397,11.205 0.186,13.8 0.668,2.981 2.527,6.524 3.424,9.409 0.933,3.003 1.741,5.322 2.048,8.883 -0.198,-0.51 -2.142,-3.204 -2.863,-4.081 -1.685,10.645 1.359,14.41 2.175,14.992 -2.682,-0.352 -4.621,-1.362 -5.981,-4.801 -0.516,4.982 1.821,7.371 3.153,8.631 -7.827,0.063 -8.412,-6.35 -8.807,-6.944 -1.358,2.14 -7.991,3.244 -7.991,3.178 0,0 2.609,-1.752 3.263,-6.457 1.087,-4.769 2.674,-6.074 3.314,-6.068 -1.672,-0.01 -5.161,-0.714 -3.098,-7.787 0.816,4.868 2.882,5.372 3.97,6.36 -1.236,-1.42 -5.274,-7.984 3.262,-8.955 -3.697,2.143 -1.27,10.409 1.91,5.971 2.332,-3.256 0.353,-9.432 -0.226,-13.045 -0.652,2.986 -1.736,4.022 -1.629,3.957 0.803,-3.434 -0.107,-6.747 0,-11.42 -0.761,4.997 -3.62,10.971 -4.079,11.68 0.216,-1.32 -0.432,-11.485 2.937,-19.08 3.175,-7.156 11.764,-0.357 11.724,-0.411 -1.044,-2.246 -4.713,-4.909 -4.603,-16.527 0.884,3.219 2.279,5.357 4.893,6.881 -0.614,-3.943 -2.091,-8.358 -4.893,-11.164 1.714,1.264 7.718,2.641 7.883,-1.103 0.109,-2.466 -2.623,-4.342 -4.24,-6.23 6.52,-0.78 7.227,5.904 7.227,5.904 1.686,-0.323 2.523,-3.776 3.371,-5.904 0.547,1.883 2.665,8.954 -3.04,8.544 1.665,1.611 4.483,0.73 5.271,-1.276 -0.382,6.879 -6.091,6.553 -7.611,4.283 -0.598,6.424 0.054,7.852 0.403,12.036 0.006,-1.891 1.481,-4.644 2.587,-5.935 -0.486,4.478 -0.056,7.464 0.491,11.94 -0.273,-6.037 3.214,-5.292 4.287,-4.777 -0.594,-2.296 -0.647,-4.178 -3.147,-7.682 1.141,0.242 8.809,3.244 11.995,-5.474 -0.744,3.785 -0.031,4.498 0.451,6.059 -0.186,-1.885 0.909,-3.609 2.116,-4.637 0.955,-0.811 2.187,-0.852 3.229,-1.205 -1.652,1.019 -2.757,4.903 -1.865,6.425 6.089,-0.457 6.526,-4.414 6.526,-4.414 0,0 0.331,4.23 -1.288,6.633 -1.552,2.303 -3.879,0.656 -5.698,0.059 2.256,1.875 2.69,2.589 3.94,4.6 -5.762,0.778 -8.661,-3.575 -9.839,-5.062 2.009,6.776 2.048,9.461 0.326,10.773 -1.513,1.154 -5.219,1.103 -5.219,1.103 0,0 4.242,6.684 5.599,9.8 l 0.019,0.038 c 0.461,-0.482 0.91,-1.201 1.45,-2.374 1.341,-2.922 1.158,-5.97 4.235,-6.764 -0.758,0.997 -1.589,3.318 -0.63,4.519 0.899,1.131 2.406,0.039 3.082,-0.806 1.699,-2.125 2.794,-7.334 1.792,-10.126 1.925,1.651 2.312,4.585 2.284,7.335 2.987,1.233 5.898,-2.228 6.305,-4.478 -0.489,8.955 -4.651,9.256 -5.433,10.969 0.76,1.882 3.041,2.336 5.487,2.141 -1.356,2.011 -5.03,1.791 -6.849,1.167 -1.313,-0.446 -3.115,-1.823 -4.513,-0.843 -1.26,0.885 -1.376,3.911 -2.467,5.083 0.698,4.661 3.942,2.711 7.033,3.825 -1.616,-0.076 -2.234,0.538 -3.211,2.226 2.877,0.497 4.558,-0.31 7.513,2.413 -0.793,-0.602 -1.865,-0.743 -4.121,0.44 -2.255,1.182 2.616,11.684 8.163,4.448 -0.414,5.878 -5.079,6.806 -5.079,6.806 0,0 3.991,3.648 6.646,-0.669"
             style="fill:#f5bd11;fill-opacity:1;fill-rule:nonzero;stroke:none"
             id="path182" /></g><g
           id="g184"
           transform="translate(87.1327,203.887)"><path
             d="M 0,0 C -2.638,-0.097 -2.695,2.342 -2.695,2.342 0.656,2.614 -0.026,1.258 0,0 M 3.326,-14.807 C 5.639,-17.634 9.74,-17.928 12.58,-16.028 8.755,-9.412 6.065,-14.326 2.298,-9.589 2.04,-9.642 1.78,-9.692 1.524,-9.735 c -1.727,-0.287 -6.92,-1.831 -7.142,5.405 -0.841,-1.629 -0.918,-3.02 -1.105,-5.593 l -0.279,1.724 c 0.199,2.458 0.69,4.442 1.88,5.863 -0.81,-7.658 3.991,-7.337 5.722,-7.046 2.782,0.459 6.698,2.505 7.892,-1.357 0.054,1.83 1.021,3.797 -1.816,4.336 9.992,1.018 4.258,7.731 3.285,9.011 0.167,-1.591 3.984,-6.84 -5.389,-7.314 -1.246,0.066 -2.316,-2.347 -3.746,-0.882 -1.459,1.493 -0.17,4.24 1.424,3.997 0.958,-0.144 0.985,-0.511 2.038,-0.335 0.615,0.099 2.536,0.543 3.354,0.948 0.677,0.339 1.306,4.473 0.76,4.96 -1.02,0.904 -10.587,1.142 -10.587,1.142 -0.046,1.385 1.222,3.104 2.162,3.667 -6.023,1.077 -8.306,-4.026 -7.499,-6.107 -3.859,-0.136 -3.859,-6.916 -3.633,-9.221 1.021,3.255 2.741,3.679 3.348,4.611 -0.94,-2.301 -1.047,-3.985 -1.262,-6.166 -0.045,-0.455 -0.091,-0.921 -0.156,-1.429 -0.342,-2.771 -1.745,-4.543 -2.045,-7.389 0.181,0.933 1.377,1.854 2.045,2.646 0.874,1.035 1.38,1.861 1.758,3.185 -0.432,-2.423 -1.178,-8.02 2.389,-14.37 0.849,1.762 1.293,2.838 1.636,4.295 1.598,-3.415 6.482,-5.381 9.38,-5.585 -2.101,2.035 -3.126,4.066 -3.806,5.627 4.146,-5.152 8.063,0.746 9.197,2.845 -4.823,-2.303 -6.807,0.937 -8.003,3.46"
             style="fill:#f5bd11;fill-opacity:1;fill-rule:nonzero;stroke:none"
             id="path186" /></g><g
           id="g188"
           transform="translate(144.8842,187.8115)"><path
             d="m 0,0 c -0.942,-0.256 -2.246,0.239 -3.32,0.814 -1.815,0.963 -2.764,2.498 -5.066,2.219 -2.497,-0.303 -2.586,-1.738 -2.409,-3.772 0.368,-4.327 -3.31,-4.04 -2.35,-12.118 0.555,-4.702 1.484,-5.254 4.2,-7.975 -0.863,1.977 -0.69,2.845 -0.492,2.658 1.297,-1.236 1.098,-0.891 1.901,-1.385 0.279,2.085 -0.139,6.394 -0.139,6.394 -1.176,0.805 -1.762,2.101 -1.331,4.82 0.341,2.141 1.079,2.587 2.783,-0.062 -0.79,1.111 -1.151,5.816 0.248,5.627 1.835,-0.248 3.345,-2.112 4.35,-3.229 C -1.571,-3.71 -0.877,-1.647 0,0"
             style="fill:#ae621b;fill-opacity:1;fill-rule:nonzero;stroke:none"
             id="path190" /></g><g
           id="g192"
           transform="translate(165.3366,207.5351)"><path
             d="M 0,0 C 0.062,0.115 2.376,2.083 1.898,4.355 1.5,3.664 -1.114,3.248 -2.47,2.178 L -2.506,2.247 C -1.45,3.738 1.811,4.287 2.276,5.093 2.496,3.183 2.161,2.271 1.108,0.43 9.316,-1.03 10.85,-12.139 9.77,-15.146 9.731,-14.45 9.631,-13.845 9.503,-13.282 9.366,-8.767 6.828,-1.029 0,0 m 5.239,-21.453 c 0.034,0.127 0.048,0.262 0.07,0.393 2.758,4.895 2.558,8.757 2.354,10.603 0.226,-0.518 0.446,-1.001 0.643,-1.486 -0.034,-2.285 -0.587,-5.603 -3.067,-9.51 m -11.566,18.67 c -0.609,2.159 2.355,0.611 3.34,0.233 0,0 -2.848,-1.975 -3.34,-0.233 m -5.723,-3.592 c -0.773,1.299 1.196,1.045 1.777,0.82 0,0 -1.287,-1.641 -1.777,-0.82 m 34.051,-38.406 c 0.008,1.011 2.161,9.317 -2.369,11.306 2.525,-0.106 4.617,-0.54 6.69,-1.48 -1.82,2.285 -3.988,5.093 -7.853,3.93 2.603,1.234 3.319,1.693 4.592,3.266 1.499,1.858 1.464,3.891 2.073,6.052 -0.33,-1.04 -1.161,-1.879 -2.16,-2.54 -1.051,-0.695 -2.282,-0.325 -3.215,-1.014 0.725,2.192 3.776,2.912 4.403,5.164 0.762,2.753 -0.848,3.769 -1.569,5.929 -0.125,-2.922 -1.183,-5.391 -3.509,-6.944 -1.205,-0.803 -2.833,-1.313 -3.982,-2.202 -1.695,-1.312 -2.031,-3.852 -2.031,-3.852 -0.068,0.951 -0.189,1.819 -0.441,2.719 0.025,-0.365 -0.29,-1.369 -1.256,-2.845 -2.246,-3.432 -3.553,-6.01 -1.227,-9.189 1.128,-1.546 3.05,-2.328 3.513,-3.871 0.921,-3.062 -2.435,-4.543 -2.456,-4.513 -0.279,0.149 -0.464,2.286 -1.777,3.305 -2.311,1.785 -4.801,2.653 -6.224,3.979 -4.927,4.596 -4.319,9.105 -3.852,10.767 l 0.135,-0.129 c 0.79,-2.655 2.322,-4.24 3.463,-5.263 -0.264,1.211 -1.215,3.441 -0.954,6.937 -0.071,0.604 -0.104,1.176 -0.091,1.645 0.127,3.641 1.476,5.567 2.965,7.967 -0.026,-0.103 -0.037,-0.213 -0.059,-0.32 -1.235,-1.995 -2.254,-3.861 -2.365,-7.001 -0.057,-1.523 0.404,-4.123 1.07,-5.485 0.63,-1.29 1.473,-2.952 1.595,-4.422 0.157,3.166 1.766,6.058 3.432,8.763 1.692,2.752 2.031,4.827 2.357,7.387 0.849,-0.746 1.454,-4.972 0.987,-5.948 6.565,9.358 2.482,18.098 -1.059,18.123 4.609,2.087 8.42,-1.416 9.695,-2.161 C 19.757,-3.998 16.288,2.044 8.439,0.291 11.42,3.06 14.914,1.654 16.415,0.602 15.104,2.449 10.488,6.786 3.758,3.863 4.026,5.513 5.11,8.14 8.501,7.465 6.892,8.903 -0.182,10.936 -4.364,5.081 -5.155,6.115 -6.256,7.124 -7.625,7.366 -7.22,6.284 -6.628,4.533 -6.837,3.294 -7.052,2.024 -8.344,1.27 -9.109,0.24 c -0.814,-1.094 -1.237,-1.759 -2.497,-2.39 -0.901,-0.454 -2.804,-1.727 -3.352,-2.115 -0.546,-0.388 0.637,-3.344 1.609,-3.853 1.634,-0.622 3.127,0.366 5.421,1.061 1.934,0.584 5.338,-0.125 5.338,-0.125 1.38,-0.236 3.246,-0.114 3.743,1.188 -0.178,-1.797 -2.391,-1.966 -3.933,-1.68 -0.094,0.016 -0.183,0.033 -0.276,0.049 -1.343,-1.071 -2.643,-3.305 -8.527,-4.966 -3.198,-0.901 -5.708,-2.952 -7.377,-5.06 -0.852,-1.396 -2.262,-4.275 -2.155,-7.899 0.796,0.555 1.563,1.09 2.183,1.552 3.152,2.348 4.283,7.046 8.59,5.81 1.014,-0.29 1.612,-1.184 1.97,-2.141 -0.488,0.436 -1.141,1.378 -2.338,1.63 -3.919,0.821 -4.251,-3.012 -8.421,-6.09 -1.626,-1.202 -4.249,-2.914 -5.751,-4.207 -1.853,-1.594 -2.145,-4.128 -1.731,-6.367 0.622,-3.364 0.183,-5.655 0.371,-8.038 0.205,-2.569 0.186,-5.936 1.855,-7.668 -0.32,0.985 0.386,1.948 0.681,2.846 0.743,-1.422 1.535,-1.855 2.781,-1.917 1.433,-0.072 2.608,0.98 3.525,1.917 -1.001,0.543 -2.102,4.389 -2.102,4.389 -3.03,0.372 -4.885,5.255 -0.99,5.627 -1.235,0.802 -2.675,1.704 -1.794,3.709 0.528,1.196 1.648,1.935 3.054,2.462 2.191,-3.893 5.091,-7.187 13.413,-11.096 -4.691,1.914 -6.704,3.056 -9.343,5.125 -1.002,-0.821 -3.093,-2.614 -2.671,-5.145 0.433,-2.597 3.089,-4.143 2.905,-5.937 -0.115,-1.107 -3.523,-1.917 -7.852,-3.648 -2.014,-0.807 -3.015,-1.965 -4.264,-4.76 -0.259,-0.575 -1.794,-3.896 -1.794,-3.896 l 6.491,-0.06 c 0,0 -0.863,2.472 0.249,4.944 0.185,-0.926 0.738,-1.421 2.102,-2.163 0.258,2.782 1.545,6.616 10.384,4.947 -2.161,2.037 -1.234,4.821 -0.432,6.058 1.984,-2.915 4.737,-3.234 7.322,-1.981 -1.181,2.791 -0.898,7.257 -0.475,8.69 -0.247,-3.659 0.483,-7.376 0.855,-8.349 2.127,-5.594 8.895,-7.939 10.354,-8.873 3.206,-2.044 5.942,-4.745 6.244,-8.591 0.211,-2.68 -0.249,-3.73 -1.855,-5.689 -0.707,-0.862 -1.607,-2.101 -1.607,-2.101 h 7.851 c 0,0 -0.67,3.592 -0.927,4.573 -0.37,1.423 1.607,2.226 4.368,1.669 -2.47,1.239 -10.541,7.746 -5.673,12.658 -0.023,0.093 -3.49,-0.425 -4.404,0.891 -1.734,2.495 -0.423,10.117 6.988,10.159 0.293,2.922 -3.318,4.342 -3.304,4.276 2.793,1.484 5.419,-1.65 6.308,-4.446"
             style="fill:#ae621b;fill-opacity:1;fill-rule:nonzero;stroke:none"
             id="path194" /></g><g
           id="g196"
           transform="translate(141.4899,97.4517)"><path
             d="M 0,0 C 0.045,0.019 0.088,0.037 0.128,0.052 0.076,0.032 0.026,0.014 -0.016,-0.002 -0.01,-0.001 -0.005,-0.001 0,0"
             style="fill:#ae621b;fill-opacity:1;fill-rule:nonzero;stroke:none"
             id="path198" /></g><g
           id="g200"
           transform="translate(141.4742,97.4495)"><path
             d="m 0,0 c 0.042,0.017 0.092,0.034 0.144,0.054 0.072,0.027 0.135,0.048 0.182,0.061 h 0.002 c 0.498,0.159 1.276,0.324 2,0.127 2.345,-0.504 4.638,-3.308 6.57,-5.508 0.863,-0.984 2.929,-2.061 4.901,-2.186 0.727,-0.048 1.447,0.027 2.083,0.29 0.893,0.367 1.94,1.369 1.874,2.395 -0.071,1.107 -1.237,1.247 -1.208,2.716 0,0 0.003,0.019 0.007,0.054 h -0.324 c 0.133,-1.45 0.907,-1.708 0.847,-2.609 -0.053,-0.777 -0.819,-1.434 -1.532,-1.64 -0.99,-0.285 -2.25,-0.025 -3.14,0.454 -0.661,0.357 -1.36,0.873 -2.107,1.573 C 9.985,-3.925 9.661,-3.598 9.33,-3.236 7.521,-1.268 6.031,0.381 4.169,1.392 3.829,1.577 3.457,1.732 3.07,1.857 -1.915,3.48 -5.096,-0.124 -8.294,-3.237 c 0.035,0.167 -0.113,0.655 -0.293,1.321 -0.39,2.582 -0.125,4.618 0.704,6.182 0.313,0.589 0.773,1.08 1.31,1.482 0.822,0.672 1.642,0.897 1.642,0.897 0.655,0.255 1.325,0.418 1.931,0.492 10e-4,0.001 10e-4,0.004 10e-4,0.004 0.21,0.033 1.063,0.116 1.063,0.116 0.013,0 0.028,0.001 0.044,0.002 1.573,0.185 3.032,0.513 3.626,2.01 0.294,0.742 0.343,1.682 0.018,2.754 L 1.513,12.062 C 1.695,11.066 1.643,10.342 0.95,9.489 0.187,8.545 -0.553,8.388 -1.356,8.375 -4.398,8.331 -5.422,7.884 -7.661,6.693 -8.053,6.484 -9.085,5.518 -9.511,5.686 h 10e-4 l -0.294,0.016 c -0.395,0.21 -0.526,1.852 -0.57,2.925 -0.013,0.256 -0.019,0.513 -0.021,0.769 -0.001,0.106 -0.001,0.166 -0.001,0.166 0,0.003 0.001,0.006 0.001,0.008 0,0.808 0.042,1.621 0.073,2.42 -0.036,1.509 -0.159,3.161 -0.276,6.124 h -0.674 c -0.037,-1.667 -0.072,-1.908 -0.108,-2.354 -0.037,-1.861 -0.012,-4.027 0.008,-5.244 0.011,-0.299 0.017,-0.601 0.017,-0.905 0.001,-0.032 0.001,-0.049 0.001,-0.049 0.052,-0.22 0.025,-0.666 -0.036,-1.175 -0.057,-0.872 -0.378,-1.738 -0.633,-2.553 -0.234,-0.62 -1.703,0.62 -2.153,0.859 -2.239,1.191 -3.262,1.638 -6.302,1.682 -0.804,0.013 -1.546,0.17 -2.309,1.114 -0.69,0.853 -0.744,1.577 -0.562,2.573 l -0.24,-0.039 c -0.324,-1.072 -0.277,-2.012 0.02,-2.754 0.6,-1.511 2.078,-1.831 3.667,-2.015 0.133,-0.013 0.851,-0.083 1.04,-0.113 0,0 0,-0.002 0.002,-0.003 0.491,-0.064 1.07,-0.24 1.673,-0.499 0,0 0.653,-0.292 1.361,-0.715 0.149,-0.088 0.3,-0.183 0.447,-0.282 0.109,-0.073 0.218,-0.149 0.326,-0.228 0.506,-0.369 0.983,-0.78 1.393,-1.222 0.26,-0.282 0.456,-0.6 0.598,-0.941 1.002,-2.401 -0.621,-5.972 -0.513,-6.488 -3.2,3.113 -6.38,6.717 -11.366,5.094 -0.387,-0.125 -0.758,-0.28 -1.098,-0.465 -1.863,-1.011 -3.351,-2.66 -5.16,-4.628 -0.332,-0.362 -0.656,-0.689 -0.971,-0.983 -0.746,-0.7 -1.445,-1.216 -2.106,-1.573 -0.89,-0.479 -2.151,-0.739 -3.14,-0.454 -0.714,0.206 -1.48,0.863 -1.532,1.64 -0.061,0.901 0.714,1.159 0.846,2.609 h -0.323 c 0.004,-0.035 0.006,-0.054 0.006,-0.054 0.031,-1.469 -1.137,-1.609 -1.208,-2.716 -0.066,-1.026 0.98,-2.028 1.874,-2.395 0.638,-0.263 1.358,-0.338 2.084,-0.29 1.972,0.125 4.037,1.202 4.902,2.186 1.931,2.2 4.225,5.004 6.57,5.508 0.912,0.248 1.916,-0.08 2.328,-0.242 l 1.632,-0.783 c 1.649,-1.005 2.824,-2.493 3.827,-3.89 1.489,-2.074 2.02,-4.202 2.447,-7.447 0.114,-0.869 0.233,-6.183 0,-11.407 -0.176,-3.957 -0.556,-7.865 -1.297,-9.749 1.725,-0.542 4.446,-0.75 8.494,0.519 -1.509,4.484 -1.299,19.168 -1.107,20.637 l -0.007,0.181 c 0.42,3.142 0.96,5.231 2.421,7.266 1.002,1.397 2.177,2.885 3.825,3.89 0,0 1.041,0.534 1.65,0.785 C 0.01,0.001 0.005,0.001 0,0"
             style="fill:#ae621b;fill-opacity:1;fill-rule:nonzero;stroke:none"
             id="path202" /></g><g
           id="g204"
           transform="translate(141.6182,97.5033)"><path
             d="M 0,0 C 0.055,0.02 0.118,0.04 0.184,0.062 H 0.182 C 0.135,0.048 0.072,0.027 0,0"
             style="fill:#ae621b;fill-opacity:1;fill-rule:nonzero;stroke:none"
             id="path206" /></g><g
           id="g208"
           transform="translate(148.7181,118.5771)"><path
             d="m 0,0 c 0.173,-0.944 -0.074,-1.724 -0.526,-2.278 0.033,0.404 0.008,0.828 -0.078,1.262 -0.206,1.044 -0.77,2.117 -1.763,2.957 0.654,-1.127 1.508,-2.938 1.227,-4.452 -0.012,-0.845 -0.111,-1.77 -0.538,-2.238 -0.075,-0.084 -0.146,-0.162 -0.213,-0.238 -0.06,-0.022 -0.581,-0.21 -1.239,-0.26 0.417,0.302 0.862,0.68 1.174,1.072 0.233,0.294 0.345,0.692 0.4,1.138 -0.913,-0.358 -1.957,-0.14 -2.441,0.863 -0.238,0.501 -0.342,1.115 -0.366,1.678 C -4.437,1.049 -4.888,2.324 -6.38,3.398 -7.872,4.471 -8.618,4.427 -8.618,4.427 -5.321,4.95 -0.627,3.413 0,0"
             style="fill:#10693f;fill-opacity:1;fill-rule:nonzero;stroke:none"
             id="path210" /></g><g
           id="g212"
           transform="translate(133.1602,97.5146)"><path
             d="M 0,0 C 1.201,-0.513 2.873,-0.335 3.571,0.876 3.983,1.591 4.066,2.647 3.922,4.074 3.922,4.074 3.789,3.341 2.893,2.9 1.995,2.459 1.212,2.382 0.587,1.684 0.142,1.186 -0.103,0.607 -0.205,0.317 1.699,0.618 2.628,1.477 3.001,1.732 1.942,0.583 0.67,0.156 0,0"
             style="fill:#10693f;fill-opacity:1;fill-rule:nonzero;stroke:none"
             id="path214" /></g><g
           id="g216"
           transform="translate(128.2656,97.5146)"><path
             d="m 0,0 c -1.201,-0.513 -2.871,-0.335 -3.571,0.876 -0.411,0.715 -0.492,1.771 -0.348,3.198 0,0 0.131,-0.733 1.028,-1.174 0.896,-0.441 1.68,-0.518 2.304,-1.216 C -0.14,1.186 0.103,0.607 0.207,0.317 -1.698,0.618 -2.627,1.477 -3,1.732 -1.94,0.583 -0.669,0.156 0,0"
             style="fill:#10693f;fill-opacity:1;fill-rule:nonzero;stroke:none"
             id="path218" /></g><g
           id="g220"
           transform="translate(125.6891,112.9835)"><path
             d="m 0,0 c 0.581,-0.648 1.276,-0.903 1.92,-0.887 -0.307,0.2 -0.595,0.453 -0.859,0.755 -0.633,0.725 -1.087,1.724 -1.138,2.898 0.445,-1.091 1.267,-2.705 2.505,-3.343 0.611,-0.459 1.327,-0.899 1.899,-0.854 0.101,0.007 0.196,0.016 0.287,0.022 0.05,0.03 0.473,0.299 0.874,0.741 C 5.04,-0.8 4.523,-0.908 4.071,-0.914 3.731,-0.917 3.384,-0.777 3.035,-0.571 3.794,-0.115 4.22,0.752 3.768,1.655 3.544,2.101 3.16,2.515 2.772,2.845 1.708,3.752 1.046,4.781 1.103,6.443 1.162,8.102 1.606,8.613 1.606,8.613 -0.594,6.545 -2.093,2.337 0,0"
             style="fill:#10693f;fill-opacity:1;fill-rule:nonzero;stroke:none"
             id="path222" /></g><g
           id="g224"
           transform="translate(121.1024,111.73)"><path
             d="m 0,0 c -0.809,-0.99 -1.831,-1.624 -2.349,-1.906 0.003,3.691 1.353,5.7 1.725,6.481 -1.858,-2.342 -2.289,-4.871 -2.384,-6.185 -1.327,2.118 -1.487,5.328 0.595,7.008 1.229,0.992 3.2,1.458 5.938,1.611 0,0 -1.345,-0.465 -1.911,-2.292 C 1.047,2.892 1.133,1.387 0,0"
             style="fill:#10693f;fill-opacity:1;fill-rule:nonzero;stroke:none"
             id="path226" /></g><g
           id="g228"
           transform="translate(136.0532,106.3363)"><path
             d="m 0,0 c 1.352,-0.578 3.232,-0.377 4.02,0.987 0.463,0.804 0.555,1.992 0.392,3.598 0,0 -0.146,-0.825 -1.156,-1.32 C 2.246,2.769 1.363,2.681 0.661,1.895 0.159,1.335 -0.115,0.684 -0.233,0.356 1.912,0.695 2.958,1.664 3.376,1.95 2.185,0.657 0.754,0.177 0,0"
             style="fill:#10693f;fill-opacity:1;fill-rule:nonzero;stroke:none"
             id="path230" /></g><g
           id="g232"
           transform="translate(132.4092,105.5012)"><path
             d="m 0,0 c 0.886,0.265 1.715,1.118 1.548,2.095 -0.101,0.576 -0.533,1.187 -1.259,1.9 0,0 0.262,-0.458 -0.028,-1.105 C -0.028,2.243 -0.421,1.846 -0.443,1.183 -0.461,0.709 -0.332,0.284 -0.257,0.079 0.645,1.106 0.761,1.996 0.848,2.303 0.793,1.198 0.294,0.388 0,0"
             style="fill:#10693f;fill-opacity:1;fill-rule:nonzero;stroke:none"
             id="path234" /></g><g
           id="g236"
           transform="translate(134.6449,108.9388)"><path
             d="M 0,0 C -0.017,-0.473 0.112,-0.899 0.188,-1.104 1.089,-0.077 1.205,0.813 1.293,1.12 1.237,0.015 0.738,-0.794 0.443,-1.184 1.33,-0.918 2.16,-0.064 1.992,0.912 1.891,1.489 1.458,2.1 0.733,2.812 c 0,0 0.26,-0.458 -0.029,-1.105 C 0.416,1.06 0.023,0.663 0,0"
             style="fill:#10693f;fill-opacity:1;fill-rule:nonzero;stroke:none"
             id="path238" /></g><g
           id="g240"
           transform="translate(125.3561,106.3363)"><path
             d="m 0,0 c -1.353,-0.578 -3.233,-0.377 -4.02,0.987 -0.464,0.804 -0.556,1.992 -0.393,3.598 0,0 0.146,-0.825 1.157,-1.32 1.01,-0.496 1.891,-0.584 2.594,-1.37 C -0.16,1.335 0.114,0.684 0.232,0.356 -1.913,0.695 -2.957,1.664 -3.378,1.95 -2.185,0.657 -0.755,0.177 0,0"
             style="fill:#10693f;fill-opacity:1;fill-rule:nonzero;stroke:none"
             id="path242" /></g><g
           id="g244"
           transform="translate(128.9984,105.5012)"><path
             d="m 0,0 c -0.886,0.265 -1.714,1.118 -1.546,2.095 0.099,0.576 0.533,1.187 1.257,1.9 0,0 -0.26,-0.458 0.03,-1.105 C 0.029,2.243 0.421,1.846 0.444,1.183 0.461,0.709 0.332,0.284 0.257,0.079 -0.644,1.106 -0.76,1.996 -0.847,2.303 -0.793,1.198 -0.293,0.388 0,0"
             style="fill:#10693f;fill-opacity:1;fill-rule:nonzero;stroke:none"
             id="path246" /></g><g
           id="g248"
           transform="translate(126.7627,108.9388)"><path
             d="m 0,0 c 0.017,-0.473 -0.112,-0.899 -0.187,-1.104 -0.901,1.027 -1.017,1.917 -1.105,2.224 0.055,-1.105 0.555,-1.914 0.85,-2.304 -0.887,0.266 -1.717,1.12 -1.549,2.096 0.1,0.577 0.534,1.188 1.259,1.9 0,0 -0.26,-0.458 0.028,-1.105 C -0.415,1.06 -0.023,0.663 0,0"
             style="fill:#10693f;fill-opacity:1;fill-rule:nonzero;stroke:none"
             id="path250" /></g><g
           id="g252"
           transform="translate(114.5974,106.5895)"><path
             d="M 0,0 C -0.989,0.692 -2.775,2.219 -3.745,4.78 -3.306,4.122 -2.358,2.116 0.543,0.38 0.564,0.92 0.545,2.022 0.146,3.123 -0.413,4.664 -1.636,5.303 -2.806,6.607 -3.977,7.91 -3.711,9.186 -3.711,9.186 -4.877,6.96 -5.434,5.192 -5.233,3.76 -4.889,1.333 -2.289,-0.048 0,0"
             style="fill:#10693f;fill-opacity:1;fill-rule:nonzero;stroke:none"
             id="path254" /></g><g
           id="g256"
           transform="translate(112.9341,106.1225)"><path
             d="M 0,0 C -0.143,-1.427 -0.062,-2.484 0.35,-3.199 1.049,-4.41 2.72,-4.588 3.921,-4.074 3.25,-3.919 1.979,-3.49 0.921,-2.342 1.294,-2.596 2.222,-3.457 4.128,-3.758 4.024,-3.467 3.779,-2.887 3.334,-2.391 2.709,-1.694 1.925,-1.614 1.029,-1.174 0.132,-0.733 0,0 0,0"
             style="fill:#10693f;fill-opacity:1;fill-rule:nonzero;stroke:none"
             id="path258" /></g><g
           id="g260"
           transform="translate(107.9909,106.1494)"><path
             d="M 0,0 C -0.144,-1.427 -0.062,-2.483 0.35,-3.199 1.048,-4.41 2.72,-4.588 3.922,-4.076 3.251,-3.918 1.98,-3.491 0.921,-2.342 1.293,-2.596 2.222,-3.456 4.127,-3.758 4.024,-3.467 3.779,-2.889 3.334,-2.391 2.709,-1.693 1.925,-1.614 1.029,-1.174 0.132,-0.732 0,0 0,0"
             style="fill:#10693f;fill-opacity:1;fill-rule:nonzero;stroke:none"
             id="path262" /></g><g
           id="g264"
           transform="translate(108.3309,106.8679)"><path
             d="M 0,0 C -0.395,0.607 -0.924,1.496 -1.479,2.646 -0.801,1.644 -0.359,0.917 0.283,0.046 0.226,0.395 0.076,1.406 0.12,2.312 0.172,3.429 -0.333,4.388 -1.636,5.85 -2.883,3.209 -3.124,0.909 0,0"
             style="fill:#10693f;fill-opacity:1;fill-rule:nonzero;stroke:none"
             id="path266" /></g><g
           id="g268"
           transform="translate(154.2605,109.5138)"><path
             d="m 0,0 c -0.555,-1.15 -1.083,-2.039 -1.477,-2.646 3.123,0.909 2.88,3.209 1.635,5.85 C -1.146,1.742 -1.651,0.783 -1.597,-0.334 -1.554,-1.24 -1.704,-2.25 -1.762,-2.6 -1.12,-1.729 -0.676,-1.002 0,0"
             style="fill:#10693f;fill-opacity:1;fill-rule:nonzero;stroke:none"
             id="path270" /></g><g
           id="g272"
           transform="translate(137.5631,123.3095)"><path
             d="m 0,0 c 0.777,-1.014 1.332,-1.887 1.696,-2.512 0.595,3.198 -1.568,4.018 -4.487,4.095 0.72,-1.823 1.347,-2.705 2.368,-3.16 0.829,-0.37 1.665,-0.958 1.951,-1.168 C 1.037,-1.78 0.588,-1.056 0,0"
             style="fill:#10693f;fill-opacity:1;fill-rule:nonzero;stroke:none"
             id="path274" /></g><g
           id="g276"
           transform="translate(114.7899,99.673)"><path
             d="m 0,0 c -1.504,1.302 -1.937,1.193 -3.743,1.123 -0.366,-0.014 -0.718,0.006 -1.025,0.125 0.69,-2.832 2.721,-2.335 4.732,-1.449 -0.75,-0.011 -1.887,0.017 -2.765,0.247 C -1.57,-0.067 -1.017,-0.059 0,0"
             style="fill:#10693f;fill-opacity:1;fill-rule:nonzero;stroke:none"
             id="path278" /></g><g
           id="g280"
           transform="translate(150.2592,111.3692)"><path
             d="m 0,0 c -0.97,-2.56 -2.756,-4.088 -3.744,-4.78 2.289,-0.047 4.889,1.333 5.231,3.76 0.204,1.432 -0.354,3.2 -1.52,5.427 0,0 0.265,-1.277 -0.904,-2.58 C -2.107,0.523 -3.332,-0.115 -3.89,-1.657 -4.288,-2.758 -4.307,-3.86 -4.285,-4.399 -1.386,-2.664 -0.439,-0.657 0,0"
             style="fill:#10693f;fill-opacity:1;fill-rule:nonzero;stroke:none"
             id="path282" /></g><g
           id="g284"
           transform="translate(144.4375,102.0488)"><path
             d="M 0,0 C 1.2,-0.514 2.871,-0.336 3.57,0.875 3.983,1.59 4.063,2.647 3.92,4.074 3.92,4.074 3.789,3.341 2.89,2.9 1.995,2.46 1.211,2.38 0.586,1.683 0.14,1.187 -0.103,0.607 -0.207,0.315 1.698,0.617 2.627,1.478 3,1.732 1.941,0.583 0.67,0.155 0,0"
             style="fill:#10693f;fill-opacity:1;fill-rule:nonzero;stroke:none"
             id="path286" /></g><g
           id="g288"
           transform="translate(149.9669,103.7589)"><path
             d="m 0,0 c -0.445,-0.498 -0.69,-1.076 -0.794,-1.367 1.907,0.301 2.835,1.161 3.207,1.416 -1.059,-1.149 -2.331,-1.577 -3,-1.734 1.202,-0.513 2.872,-0.334 3.571,0.877 0.412,0.716 0.494,1.772 0.35,3.199 0,0 -0.131,-0.733 -1.028,-1.175 C 1.409,0.776 0.625,0.698 0,0"
             style="fill:#10693f;fill-opacity:1;fill-rule:nonzero;stroke:none"
             id="path290" /></g><g
           id="g292"
           transform="translate(146.5388,99.4723)"><path
             d="M 0,0 C 2.01,-0.886 4.04,-1.383 4.732,1.449 4.425,1.33 4.073,1.309 3.707,1.324 1.901,1.394 1.466,1.503 -0.036,0.201 0.98,0.142 1.532,0.134 2.765,0.247 1.885,0.016 0.749,-0.012 0,0"
             style="fill:#10693f;fill-opacity:1;fill-rule:nonzero;stroke:none"
             id="path294" /></g><g
           id="g296"
           transform="translate(100.0273,92.1772)"><path
             d="M 0,0 C 0.31,0.592 0.582,1.274 0.46,1.759 0.439,1.845 0.419,1.925 0.4,2.003 0.366,2.041 0.072,2.366 -0.368,2.645 -0.188,2.28 -0.02,1.852 0.051,1.463 0.104,1.171 0.036,0.85 -0.092,0.519 -0.594,1.108 -1.404,1.348 -2.113,0.826 -2.466,0.567 -2.766,0.177 -2.993,-0.205 -3.619,-1.254 -4.406,-1.976 -5.846,-2.17 c -1.436,-0.193 -1.941,0.116 -1.941,0.116 2.102,-1.591 5.944,-2.263 7.649,-0.119 0.471,0.593 0.59,1.229 0.481,1.782 C 0.216,-0.686 0.041,-0.97 -0.181,-1.242 -0.711,-1.892 -1.505,-2.43 -2.508,-2.646 -1.633,-2.105 -0.365,-1.159 0,0"
             style="fill:#10693f;fill-opacity:1;fill-rule:nonzero;stroke:none"
             id="path298" /></g><g
           id="g300"
           transform="translate(107.2148,94.1884)"><path
             d="m 0,0 c -0.511,0.571 -1.152,0.634 -1.886,0.996 -0.734,0.36 -0.841,0.96 -0.841,0.96 -0.117,-1.168 -0.051,-2.032 0.286,-2.616 0.57,-0.992 1.939,-1.137 2.921,-0.716 -0.548,0.126 -1.588,0.477 -2.454,1.415 C -1.669,-0.17 -0.91,-0.872 0.648,-1.118 0.565,-0.881 0.363,-0.408 0,0"
             style="fill:#10693f;fill-opacity:1;fill-rule:nonzero;stroke:none"
             id="path302" /></g><g
           id="g304"
           transform="translate(105.7362,96.3273)"><path
             d="M 0,0 C 0.846,-0.456 1.664,-0.462 2.329,-0.202 1.935,-0.109 1.539,0.046 1.152,0.261 0.223,0.778 -0.624,1.646 -1.12,2.849 -0.246,1.88 1.212,0.51 2.739,0.312 3.548,0.062 4.458,-0.127 5.037,0.135 5.137,0.18 5.234,0.224 5.326,0.264 5.367,0.315 5.706,0.752 5.956,1.363 5.54,1.058 5.044,0.752 4.575,0.577 4.223,0.446 3.811,0.462 3.37,0.545 3.989,1.303 4.105,2.365 3.298,3.134 2.895,3.514 2.342,3.802 1.814,3.999 0.368,4.544 -0.708,5.364 -1.271,7.115 -1.833,8.864 -1.561,9.562 -1.561,9.562 -3.073,6.585 -3.054,1.646 0,0"
             style="fill:#10693f;fill-opacity:1;fill-rule:nonzero;stroke:none"
             id="path306" /></g><g
           id="g308"
           transform="translate(123.4586,90.3786)"><path
             d="m 0,0 c -0.217,-0.812 -0.718,-1.628 -1.545,-2.236 0.575,0.853 1.344,2.234 1.2,3.443 0.037,0.666 0.007,1.4 -0.305,1.792 C -0.702,3.067 -0.756,3.133 -0.805,3.197 -0.852,3.22 -1.252,3.393 -1.769,3.468 -1.455,3.207 -1.126,2.887 -0.9,2.561 -0.732,2.316 -0.663,1.998 -0.643,1.643 -1.342,1.972 -2.178,1.858 -2.612,1.091 -2.825,0.71 -2.94,0.231 -2.988,-0.211 -3.129,-1.424 -3.551,-2.406 -4.783,-3.174 -6.013,-3.941 -6.6,-3.865 -6.6,-3.865 -4.029,-4.451 -0.251,-3.487 0.421,-0.833 0.609,-0.097 0.454,0.532 0.128,0.99 0.134,0.671 0.09,0.338 0,0"
             style="fill:#10693f;fill-opacity:1;fill-rule:nonzero;stroke:none"
             id="path310" /></g><g
           id="g312"
           transform="translate(161.0803,92.1772)"><path
             d="m 0,0 c -0.309,0.592 -0.583,1.274 -0.46,1.759 0.021,0.086 0.042,0.166 0.059,0.244 0.036,0.038 0.328,0.363 0.769,0.642 C 0.188,2.28 0.019,1.852 -0.05,1.463 -0.104,1.171 -0.036,0.85 0.092,0.519 0.595,1.108 1.403,1.348 2.113,0.826 2.465,0.567 2.766,0.177 2.994,-0.205 3.618,-1.254 4.407,-1.976 5.845,-2.17 7.282,-2.363 7.787,-2.054 7.787,-2.054 5.684,-3.645 1.842,-4.317 0.138,-2.173 -0.334,-1.58 -0.452,-0.944 -0.343,-0.391 -0.218,-0.686 -0.041,-0.97 0.181,-1.242 0.712,-1.892 1.504,-2.43 2.508,-2.646 1.633,-2.105 0.364,-1.159 0,0"
             style="fill:#10693f;fill-opacity:1;fill-rule:nonzero;stroke:none"
             id="path314" /></g><g
           id="g316"
           transform="translate(137.6498,90.3786)"><path
             d="M 0,0 C 0.216,-0.812 0.718,-1.628 1.544,-2.236 0.97,-1.383 0.201,-0.002 0.345,1.207 0.307,1.873 0.336,2.607 0.65,2.999 0.702,3.067 0.754,3.133 0.803,3.197 0.851,3.22 1.251,3.393 1.766,3.468 1.453,3.207 1.124,2.887 0.899,2.561 0.732,2.316 0.663,1.998 0.643,1.643 1.342,1.972 2.178,1.858 2.61,1.091 2.825,0.71 2.94,0.231 2.988,-0.211 3.128,-1.424 3.55,-2.406 4.782,-3.174 6.013,-3.941 6.6,-3.865 6.6,-3.865 4.028,-4.451 0.249,-3.487 -0.423,-0.833 -0.611,-0.097 -0.454,0.532 -0.129,0.99 -0.134,0.671 -0.091,0.338 0,0"
             style="fill:#10693f;fill-opacity:1;fill-rule:nonzero;stroke:none"
             id="path318" /></g><g
           id="g320"
           transform="translate(152.0439,99.4618)"><path
             d="m 0,0 c -0.807,-0.77 -0.69,-1.831 -0.071,-2.589 -0.44,-0.084 -0.854,-0.099 -1.206,0.032 -0.468,0.175 -0.965,0.48 -1.381,0.786 0.251,-0.611 0.589,-1.048 0.63,-1.099 0.092,-0.041 0.189,-0.084 0.29,-0.129 0.578,-0.262 1.488,-0.074 2.296,0.177 1.528,0.197 2.987,1.567 3.86,2.536 C 3.923,-1.488 3.075,-2.357 2.145,-2.873 1.759,-3.088 1.364,-3.243 0.97,-3.336 1.634,-3.597 2.452,-3.591 3.299,-3.134 6.351,-1.488 6.372,3.45 4.86,6.427 4.86,6.427 5.131,5.729 4.569,3.98 4.007,2.23 2.931,1.409 1.484,0.864 0.956,0.667 0.402,0.379 0,0"
             style="fill:#10693f;fill-opacity:1;fill-rule:nonzero;stroke:none"
             id="path322" /></g><g
           id="g324"
           transform="translate(135.8113,112.9835)"><path
             d="m 0,0 c -0.58,-0.648 -1.275,-0.903 -1.92,-0.887 0.308,0.2 0.597,0.453 0.86,0.755 0.632,0.725 1.088,1.724 1.14,2.898 -0.446,-1.091 -1.269,-2.705 -2.507,-3.343 -0.61,-0.459 -1.328,-0.899 -1.9,-0.854 -0.1,0.007 -0.195,0.016 -0.285,0.022 -0.052,0.03 -0.473,0.299 -0.873,0.741 0.446,-0.132 0.963,-0.24 1.415,-0.246 0.34,-0.003 0.688,0.137 1.036,0.343 -0.759,0.456 -1.184,1.323 -0.733,2.226 0.226,0.446 0.607,0.86 0.997,1.19 1.063,0.907 1.726,1.936 1.669,3.598 -0.059,1.659 -0.503,2.17 -0.503,2.17 C 0.595,6.545 2.093,2.337 0,0"
             style="fill:#10693f;fill-opacity:1;fill-rule:nonzero;stroke:none"
             id="path326" /></g><g
           id="g328"
           transform="translate(140.3989,111.73)"><path
             d="M 0,0 C 0.81,-0.99 1.831,-1.624 2.348,-1.906 2.346,1.785 0.996,3.794 0.624,4.575 2.482,2.233 2.913,-0.296 3.007,-1.61 4.335,0.508 4.496,3.718 2.413,5.398 1.185,6.39 -0.786,6.856 -3.526,7.009 c 0,0 1.346,-0.465 1.913,-2.292 C -1.048,2.892 -1.133,1.387 0,0"
             style="fill:#10693f;fill-opacity:1;fill-rule:nonzero;stroke:none"
             id="path330" /></g><g
           id="g332"
           transform="translate(125.3917,128.4117)"><path
             d="M 0,0 C 0,0 1.258,-0.019 2.524,-2.014 3.792,-4.015 3.391,-6.049 2.911,-7.94 2.737,-8.627 2.688,-9.415 2.84,-10.162 c 0.206,-1.018 0.769,-1.823 1.345,-2.343 0.207,-0.188 0.417,-0.337 0.627,-0.442 h 0.002 c 0,0 0.064,-0.034 0.161,-0.072 0.018,-0.007 0.033,-0.015 0.05,-0.021 0.002,10e-4 0.003,10e-4 0.003,0.002 0.244,-0.08 0.643,-0.155 1.058,0.082 -0.002,-0.003 -0.003,-0.006 -0.004,-0.011 0.019,0.011 0.036,0.024 0.055,0.035 -0.469,0.328 -1.543,1.565 -1.183,5.966 0,0 0.415,2.607 -1.04,4.243 0,0 1.486,-0.859 1.373,-3.939 0,0 -0.569,-4.53 1.137,-6.035 0.155,0.157 0.303,0.358 0.444,0.609 10e-4,0.005 0.005,0.009 0.006,0.013 v 0.002 c 0.071,0.125 0.138,0.261 0.204,0.412 0.141,0.324 0.268,0.707 0.386,1.147 C 8.912,-5.061 5.945,0.002 0,0"
             style="fill:#10693f;fill-opacity:1;fill-rule:nonzero;stroke:none"
             id="path334" /></g><g
           id="g336"
           transform="translate(112.6809,118.5771)"><path
             d="M 0,0 C -0.173,-0.944 0.073,-1.724 0.524,-2.278 0.491,-1.874 0.517,-1.45 0.603,-1.016 0.808,0.028 1.374,1.101 2.366,1.941 1.714,0.814 0.859,-0.997 1.14,-2.511 c 0.01,-0.845 0.11,-1.77 0.537,-2.238 0.073,-0.084 0.146,-0.162 0.212,-0.238 0.061,-0.022 0.582,-0.21 1.24,-0.26 -0.418,0.302 -0.862,0.68 -1.173,1.072 -0.234,0.294 -0.346,0.692 -0.4,1.138 0.911,-0.358 1.957,-0.14 2.44,0.863 0.238,0.501 0.342,1.115 0.367,1.678 0.074,1.545 0.525,2.82 2.016,3.894 C 7.871,4.471 8.617,4.427 8.617,4.427 5.319,4.95 0.627,3.413 0,0"
             style="fill:#10693f;fill-opacity:1;fill-rule:nonzero;stroke:none"
             id="path338" /></g><g
           id="g340"
           transform="translate(123.835,123.3095)"><path
             d="M 0,0 C -0.776,-1.014 -1.331,-1.887 -1.696,-2.512 -2.291,0.686 -0.128,1.506 2.791,1.583 2.071,-0.24 1.443,-1.122 0.423,-1.577 -0.406,-1.947 -1.242,-2.535 -1.528,-2.745 -1.039,-1.78 -0.59,-1.056 0,0"
             style="fill:#10693f;fill-opacity:1;fill-rule:nonzero;stroke:none"
             id="path342" /></g><g
           id="g344"
           transform="translate(153.3837,92.8121)"><path
             d="m 0,0 c 0.983,-0.421 2.35,-0.276 2.921,0.716 0.337,0.584 0.403,1.449 0.286,2.616 0,0 -0.107,-0.6 -0.842,-0.96 C 1.632,2.01 0.99,1.947 0.48,1.376 0.116,0.969 -0.084,0.496 -0.168,0.258 1.39,0.505 2.15,1.207 2.454,1.415 1.588,0.477 0.548,0.127 0,0"
             style="fill:#10693f;fill-opacity:1;fill-rule:nonzero;stroke:none"
             id="path346" /></g><g
           id="g348"
           transform="translate(118.3117,103.3236)"><path
             d="M 0,0 C 1.501,-0.97 2.671,-0.415 4.04,0.173 4.304,0.298 4.573,0.422 4.85,0.538 4.699,0.634 4.54,0.699 4.377,0.739 3.2,1.017 2.33,0.104 0.976,0.362 -0.049,0.557 -1.047,1.26 -1.673,2.171 c 0.249,-0.888 0.699,-1.672 1.298,-2.47 0.585,-0.776 1.118,-1.45 1.992,-1.917 0.761,-0.407 1.652,-0.612 2.411,-0.438 1.077,0.248 2.017,1.479 1.471,2.465 C 5.416,-0.04 5.329,0.087 5.235,0.196 5.7,0.369 6.139,0.47 6.517,0.372 6.786,0.304 7.069,0.184 7.337,0.049 6.628,0.473 5.976,0.765 5.976,0.765 5.319,0.62 4.588,0.25 4.117,0.029 2.152,-0.689 1.474,-1.004 0,0"
             style="fill:#10693f;fill-opacity:1;fill-rule:nonzero;stroke:none"
             id="path350" /></g><g
           id="g352"
           transform="translate(134.9008,103.1979)"><path
             d="M 0,0 C 0.013,0.008 0.024,0.018 0.036,0.028 0.38,0.221 0.767,0.404 1.131,0.498 1.509,0.596 1.947,0.494 2.412,0.322 2.318,0.213 2.232,0.085 2.149,-0.063 1.602,-1.049 2.543,-2.279 3.62,-2.528 c 0.759,-0.175 1.649,0.03 2.411,0.438 0.874,0.467 1.408,1.141 1.991,1.917 0.6,0.797 1.051,1.582 1.298,2.47 C 8.696,1.386 7.697,0.683 6.672,0.487 5.319,0.229 4.447,1.143 3.271,0.865 3.108,0.825 2.949,0.759 2.798,0.665 3.075,0.549 3.344,0.424 3.608,0.299 4.978,-0.29 6.146,-0.844 7.649,0.126 6.173,-0.878 5.495,-0.565 3.531,0.153 3.053,0.378 2.307,0.755 1.643,0.897 1.643,0.897 0.822,0.672 0,0"
             style="fill:#10693f;fill-opacity:1;fill-rule:nonzero;stroke:none"
             id="path354" /></g><g
           id="g356"
           transform="translate(103.3808,95.555)"><path
             d="m 0,0 v 0 c 0.13,0.303 0.213,0.715 0.167,1.274 -0.307,3.57 -4.755,2.55 -6.546,0.877 -1.513,-1.411 -3.169,-3.421 -5.522,-2.997 2.277,0.175 3.669,1.73 5.172,3.205 1.769,1.735 4.639,2.579 6.514,0.425 -2.224,5.223 -8.362,4.284 -11.583,0.726 -0.872,-0.962 -2.548,-4.014 -4.036,-3.892 -1.178,0.096 -2.169,1.288 -2.169,1.288 0.614,-1.287 1.307,-2.542 2.044,-3.433 4.99,-6.039 7.757,-0.745 12.217,3.081 0.285,0.247 0.557,0.436 0.779,0.571 1.083,0.655 2.135,-0.275 2.457,-0.7 0.071,-0.096 0.124,-0.187 0.166,-0.272 -0.003,-0.109 0.004,-0.201 0.009,-0.255 h 0.322 C -0.005,-0.068 -0.003,-0.034 0,0"
             style="fill:#10693f;fill-opacity:1;fill-rule:nonzero;stroke:none"
             id="path358" /></g><g
           id="g360"
           transform="translate(158.0381,95.7081)"><path
             d="m 0,0 c 0.04,0.085 0.095,0.176 0.167,0.272 0.32,0.424 1.371,1.355 2.455,0.7 0.222,-0.135 0.493,-0.324 0.779,-0.571 4.461,-3.826 7.228,-9.12 12.218,-3.081 0.737,0.891 1.429,2.146 2.043,3.433 0,0 -0.991,-1.192 -2.17,-1.288 C 14.005,-0.657 12.328,2.394 11.457,3.357 8.237,6.915 2.099,7.853 -0.127,2.631 1.748,4.785 4.62,3.941 6.387,2.206 7.891,0.731 9.284,-0.824 11.558,-0.999 9.208,-1.423 7.551,0.587 6.039,1.998 4.246,3.671 -0.201,4.691 -0.507,1.121 c -0.046,-0.56 0.035,-0.971 0.166,-1.274 0.003,-0.034 0.004,-0.068 0.008,-0.102 h 0.324 C -0.005,-0.201 0.002,-0.109 0,0"
             style="fill:#10693f;fill-opacity:1;fill-rule:nonzero;stroke:none"
             id="path362" /></g><g
           id="g364"
           transform="translate(119.4079,97.4803)"><path
             d="m 0,0 c -0.166,-0.047 -0.338,-0.097 -0.521,-0.15 -1.563,-0.451 -3.088,-3.233 -3.957,-4.693 -2.643,-3.702 -3.485,-5.1 -7.104,-5.055 3.63,0.047 5.067,2.483 6.815,5.226 0.328,0.548 0.659,1.106 1.018,1.655 -0.364,-0.006 -0.708,-0.082 -1.033,-0.21 -2.334,-0.92 -2.875,-3.652 -5.493,-4.823 -1.985,-0.886 -4.46,-0.813 -6.507,0.097 1.369,-1.324 2.985,-2.216 4.865,-2.946 1.838,-0.713 3.478,-1.3 5.487,-1.095 1.751,0.18 3.512,0.888 4.643,2.131 1.606,1.765 1.928,5.159 -0.068,6.301 -0.298,0.171 -0.586,0.299 -0.862,0.387 0.621,0.883 1.271,1.601 2.034,1.88 0.764,0.283 1.679,0.419 2.512,0.481 L 0.197,-0.031 C 0.132,-0.017 0.066,-0.01 0,0"
             style="fill:#10693f;fill-opacity:1;fill-rule:nonzero;stroke:none"
             id="path366" /></g><g
           id="g368"
           transform="translate(144.3881,94.3049)"><path
             d="M 0,0 C -0.276,-0.088 -0.564,-0.216 -0.865,-0.386 -2.859,-1.528 -2.536,-4.923 -0.931,-6.687 0.2,-7.93 1.962,-8.639 3.712,-8.818 c 2.009,-0.206 3.648,0.381 5.487,1.094 1.881,0.73 3.496,1.623 4.865,2.946 C 12.016,-5.688 9.543,-5.76 7.557,-4.874 4.938,-3.703 4.399,-0.972 2.064,-0.052 1.739,0.076 1.396,0.152 1.031,0.159 1.391,-0.391 1.722,-0.949 2.049,-1.497 3.797,-4.239 5.234,-6.675 8.863,-6.722 5.246,-6.767 4.402,-5.369 1.761,-1.668 0.891,-0.208 -0.635,2.574 -2.196,3.025 -2.378,3.079 -2.552,3.128 -2.718,3.175 -2.779,3.167 -2.838,3.158 -2.898,3.147 -3.507,2.895 -4.548,2.361 -4.548,2.361 -3.714,2.299 -2.798,2.164 -2.035,1.881 -1.273,1.601 -0.621,0.883 0,0"
             style="fill:#10693f;fill-opacity:1;fill-rule:nonzero;stroke:none"
             id="path370" /></g><g
           id="g372"
           transform="translate(149.3599,59.8048)"><path
             d="M 0,0 C 5.189,4.167 10.671,9.196 16.016,15.169 2.327,14.898 -9.112,10.958 -18.056,6.149 -11.283,5.162 -4.849,3.292 0,0"
             style="fill:#10693f;fill-opacity:1;fill-rule:nonzero;stroke:none"
             id="path374" /></g><g
           id="g376"
           transform="translate(131.3035,65.9534)"><path
             d="m 0,0 c -17.702,2.582 -37.709,-0.886 -37.709,-0.886 -10e-4,-0.002 -0.003,-0.004 -0.005,-0.005 6.488,-5.876 12.787,-10.437 18.124,-13.845 5.689,-3.63 10.286,-5.951 12.845,-7.146 4.188,1.954 13.834,6.928 24.801,15.733 C 13.208,-2.857 6.773,-0.987 0,0"
             style="fill:#10693f;fill-opacity:1;fill-rule:nonzero;stroke:none"
             id="path378" /></g><g
           id="g380"
           transform="translate(149.2601,59.6358)"><path
             d="M 0,0 0.135,0.198 C 0.069,0.146 0.002,0.09 -0.064,0.036 -0.043,0.026 -0.021,0.015 0,0"
             style="fill:#ffffff;fill-opacity:1;fill-rule:nonzero;stroke:none"
             id="path382" /></g><g
           id="g384"
           transform="translate(168.0336,77.3188)"><path
             d="m 0,0 -0.213,-0.025 c -0.24,-0.027 -24.083,-2.823 -35.223,-10.499 -5.419,1.251 -12.159,2.165 -20.293,2.165 -6.784,0 -14.014,-0.635 -21.491,-1.885 l -0.151,-0.025 c 0.803,-0.761 1.604,-1.503 2.402,-2.222 1.308,0.215 10.85,1.732 22.327,1.732 14.727,0 26.232,-2.376 34.201,-7.062 0.068,0.055 0.136,0.111 0.203,0.164 l 0.087,0.127 c -0.078,0.06 -5.432,4.168 -16.692,6.864 2.529,1.314 15.895,7.825 32.72,8.246 C -1.412,-1.629 -0.704,-0.823 0,0"
             style="fill:#ffffff;fill-opacity:1;fill-rule:nonzero;stroke:none"
             id="path386" /></g><g
           id="g388"
           transform="translate(171.5563,82.5516)"><path
             d="m 0,0 c -17.723,-22.847 -39.286,-34.019 -45.473,-36.9 l -1.525,-0.71 -1.526,0.711 c -6.187,2.882 -27.751,14.06 -45.472,36.899 -1.315,1.695 -2.569,3.429 -3.791,5.183 l 53.436,56.846 v 81.034 h 64.989 l 0.664,-2.772 C 34.817,83.891 27.452,35.379 0,0 m -115.295,140.291 0.664,2.772 h 65.248 V 64.022 L -100.656,9.478 c -21.897,34.359 -26.985,79.292 -14.639,130.813 m 141.112,6.497 -0.577,2.231 h -144.473 l -0.578,-2.231 c -8.74,-33.705 -10.447,-64.675 -5.07,-92.052 4.324,-22.012 13.202,-41.745 26.388,-58.65 22.462,-28.805 49.306,-39.251 50.437,-39.682 l 1.06,-0.403 1.058,0.402 c 1.129,0.431 27.998,10.905 50.44,39.683 13.185,16.906 22.062,36.639 26.385,58.65 5.377,27.378 3.672,58.349 -5.07,92.052"
             style="fill:#ff0001;fill-opacity:1;fill-rule:nonzero;stroke:none"
             id="path390" /></g></g></g></g></svg>
