<?xml version="1.0" encoding="utf-8"?>
<svg version="1.1" xmlns="http://www.w3.org/2000/svg" x="0px" y="0px" viewBox="0 0 256 256" enable-background="new 0 0 256 256">
  <g>
    <g>
      <path d="M111.2,50.6h84.5c2.9,0,5.3-2.4,5.3-5.3c0-2.9-2.4-5.3-5.3-5.3h-84.5c-2.9,0-5.3,2.4-5.3,5.3C105.9,48.2,108.3,50.6,111.2,50.6z" style="fill: rgb(255, 255, 255);"/>
      <path d="M195.7,85.3h-52c-2.9,0-5.3,2.4-5.3,5.3s2.4,5.3,5.3,5.3h52c2.9,0,5.3-2.4,5.3-5.3S198.5,85.3,195.7,85.3z" style="fill: rgb(255, 255, 255);"/>
      <path d="M156.7,130.8h-45.5c-2.9,0-5.3,2.4-5.3,5.3s2.4,5.3,5.3,5.3h45.5c2.9,0,5.3-2.4,5.3-5.3C162,133.2,159.5,130.8,156.7,130.8z" style="fill: rgb(255, 255, 255);"/>
      <path d="M245,228l-16.1-34.4c2.7-0.5,4.6-2.7,4.6-5.3V12.8c0-2.9-2.4-5.3-5.3-5.3H78.7c-2.9,0-5.3,2.4-5.3,5.3v30.3L13.7,64.3c-2.9,1-4.3,4.1-3.4,7l59,165.4c0.5,1.5,1.5,2.4,2.7,3.1c0.7,0.2,1.5,0.5,2.4,0.5c0.7,0,1.2,0,1.9-0.2l118.4-42.1l20.7,44.3c1.2,2.7,3.4,4.6,6,5.5c1.2,0.5,2.4,0.7,3.6,0.7c1.5,0,3.1-0.2,4.6-1l10.4-4.8C245.3,239.8,247.4,233.3,245,228z M84,18.1h138.7v162l-18.3-39.5c-0.5-0.7-1-1.5-1.5-2.2l-14.7-18c-2.2-2.7-5.3-4.1-8.4-4.1c-1.5,0-3.1,0.2-4.6,1c-4.6,2.2-7,7-6,11.8l4.3,22.9c0.2,1,0.5,1.7,0.7,2.4l13.2,28.4H83.7V18.1H84z M183.2,144.5l-3.4-17.6l11.3,14L183.2,144.5z M22.3,72.8l51-18v133.6c0,2.9,2.4,5.3,5.3,5.3h95.1l-96,34.2L22.3,72.8z M225,237.4l-38.5-82.6l10.4-4.8l0,0l38.5,82.6L225,237.4z" style="fill: rgb(255, 255, 255);"/>
    </g>
  </g>
</svg>